<?xml version="1.0" encoding="utf-8"?>
<!-- Generator: Adobe Illustrator 16.0.0, SVG Export Plug-In . SVG Version: 6.00 Build 0)  -->
<!DOCTYPE svg PUBLIC "-//W3C//DTD SVG 1.1//EN" "http://www.w3.org/Graphics/SVG/1.1/DTD/svg11.dtd">
<svg version="1.1" id="Layer_1" xmlns="http://www.w3.org/2000/svg" xmlns:xlink="http://www.w3.org/1999/xlink" x="0px" y="0px"
	 width="700px" height="250px" viewBox="0 0 700 250" enable-background="new 0 0 700 250" xml:space="preserve">
<g>
	<path fill-rule="evenodd" clip-rule="evenodd" d="M630.676,154.688c-3.228,1.317-6.029,2.79-9.012,3.566
		c-2.12,0.551-4.484,0.15-6.739,0.196c-1.638,0.033-3.381-0.248-4.893,0.216c-6.128,1.88-11.8,0.004-17.513-1.766
		c-0.496-0.153-0.942-0.549-1.439-0.611c-6.035-0.755-8.136-5.865-10.509-10.173c-1.615-2.935-1.809-6.658-2.601-10.037
		c-0.277-1.185-0.533-2.388-0.636-3.596c-0.119-1.407-0.355-2.906-0.016-4.231c0.753-2.943,0.249-3.666-2.921-3.859
		c-6.685-0.408-11.975,3.226-17.601,6.067c0.42,0,0.84,0,1.085,0c-5.519,3.281-11.071,6.811-16.837,9.949
		c-6.931,3.774-13.916,7.498-21.117,10.706c-5.112,2.277-10.963,3.015-15.87,5.603c-7.306,3.853-14.85,2.246-22.329,2.427
		c-5.099,0.124-9.581-1.698-13.002-5.656c-2.564-2.967-5.48-5.728-7.524-9.024c-3.191-5.146-5.72-10.699-8.669-16.002
		c-0.573-1.031-1.786-1.706-2.703-2.544c-0.571,0.942-1.197,1.856-1.704,2.832c-3.274,6.305-6.052,12.957-11.979,17.426
		c-4.994,3.765-9.681,8.149-15.16,10.993c-4.244,2.202-9.453,2.869-14.324,3.459c-6.586,0.798-13.257,1.042-19.896,1.152
		c-2.235,0.037-4.503-1.014-6.729-1.655c-1.474-0.425-2.875-1.11-4.355-1.497c-2.886-0.754-4.914-3.734-5.196-7.493
		c-0.545-7.251,0.095-14.508,2.926-21.337c0.778-1.877,1.994-3.677,3.375-5.175c1.993-2.163,3.596-2.167,5.378,0.095
		c1.297,1.646,2.43,3.679,2.859,5.703c1.172,5.512,3.44,7.531,9.025,7.65c10.663,0.23,21.347-0.782,31.205-4.481
		c8.501-3.189,16.137-8.731,18.988-18.321c0.935-3.142,0.889-6.447-0.09-9.787c-1.336-4.557-2.162-9.263-3.227-13.901
		c-0.212-0.926-0.492-1.838-0.773-2.746c-1.712-5.524-3.538-11.016-5.116-16.579c-1.097-3.87-1.857-7.835-2.771-11.757
		c-0.414-1.778-0.199-3.229,1.011-4.859c1.899-2.561,3.175-5.573,4.891-8.283c1.062-1.676,2.275-3.337,3.733-4.66
		c2.072-1.879,4.206-1.154,4.826,1.613c0.686,3.059,1.003,6.199,1.567,9.287c0.479,2.62,1.146,5.206,1.619,7.826
		c0.757,4.19,0.983,8.53,2.215,12.569c3.308,10.849,5.055,22.177,10.051,32.521c1.483,3.072,2.451,6.413,3.457,9.691
		c2.714,8.844,8.385,15.625,15.35,21.29c1.7,1.383,4.764,1.482,7.199,1.481c4.1-0.001,8.216-0.412,12.291-0.93
		c2.649-0.336,5.28-1.019,7.841-1.805c4.609-1.416,9.223-2.861,13.713-4.607c3.598-1.398,7.038-3.216,10.508-4.928
		c3.705-1.828,7.388-3.705,11.031-5.651c1.837-0.98,3.566-2.159,5.609-3.41c-1.918-1.703-3.69-3.167-6.474-2.417
		c-0.795,0.213-1.75,0.125-2.567-0.082c-5.79-1.465-11.672-2.679-17.302-4.621c-3.591-1.238-6.781-0.027-10.038,0.459
		c-3.096,0.462-6.113,1.811-9.018,3.103c-4.335,1.93-8.647,0.468-8.396-3.299c0.157-2.337,0.934-4.888,2.202-6.842
		c2.766-4.258,6.104-8.093,11.043-10.091c0.607-0.246,1.369-0.734,1.558-1.283c0.912-2.652,3.304-3.257,5.429-3.359
		c6.096-0.293,12.286-0.691,18.171,1.472c4.941,1.816,9.831,3.796,14.651,5.913c3.343,1.469,6.438,3.522,9.816,4.885
		c2.389,0.962,5.058,1.248,7.618,1.756c3.195,0.634,6.406,1.185,9.621,2.086c-0.998,0.06-1.996,0.121-2.993,0.181
		c-0.02,0.126-0.039,0.252-0.059,0.377c0.88,0.186,1.766,0.559,2.638,0.528c8.141-0.287,16.282-0.58,24.417-1.009
		c3.466-0.183,6.909-0.835,10.375-0.973c1.175-0.046,2.521,0.636,3.547,1.34c1.519,1.043,1.458,2.291,0.521,4.05
		c-2.273,4.272-4.848,8.586-5.983,13.207c-1.151,4.681-0.807,9.748-0.944,14.651c-0.062,2.235,1.224,3.355,3.568,3.049
		c4.046-0.531,8.114-0.918,12.138-1.58c3.123-0.514,5.003-2.744,7.305-4.88c6.819-6.324,6.878-15.246,10.029-22.93
		c2.749-6.705,5.913-13.11,10.774-18.489c4.67-5.167,10.361-5.84,16.27-2.126c3.402,2.138,6.663,4.508,9.896,6.897
		c0.874,0.646,1.586,1.655,2.085,2.643c2.286,4.525,4.927,8.946,6.547,13.708c1.304,3.835,1.719,8.096,1.815,12.185
		c0.111,4.75,0.999,9.695-1.442,14.214c-0.732,1.356-1.502,2.724-2.459,3.922c-1.636,2.051-3.473,3.941-5.154,5.958
		c-2.289,2.746-5.96,3.465-10.378,2.073c-1.559-0.491-3.217-0.657-4.8-1.082c-0.985-0.265-1.922-0.723-2.867-1.127
		c-0.231-0.099-0.385-0.396-0.618-0.479c-6.049-2.156-10.32-6.966-15.565-10.312c-0.63-0.402-2.152-0.102-2.855,0.42
		c-4.46,3.311-6.379,7.842-6.496,13.399c-0.148,7.015-0.647,14.022-1.022,21.032c-0.029,0.564-0.27,1.117-0.411,1.677
		c-0.252,0.006-0.504,0.012-0.755,0.018C631.967,168.788,631.319,161.709,630.676,154.688z M672.473,125.874
		c-0.88-2.353-1.805-4.852-2.76-7.339c-0.084-0.221-0.356-0.376-0.555-0.545c-1.93-1.639-3.734-3.467-5.834-4.847
		c-1.505-0.989-3.821-2.349-5.041-1.827c-2.527,1.081-4.765,3.11-6.733,5.127c-1.305,1.338-0.76,3.177,0.745,4.368
		c0.881,0.696,1.905,1.263,2.945,1.696c3.36,1.402,6.812,2.509,9.569,5.164c1.017,0.979,2.829,1.367,4.335,1.545
		C671.267,129.466,672.317,128.122,672.473,125.874z M585.877,128.603c-0.091,3.256,1.632,6.601,4,7.276
		c3.755,1.071,7.588,1.885,11.416,2.678c1.705,0.353,2.719-0.468,2.542-2.325c-0.166-1.734-0.65-3.476-0.553-5.189
		c0.159-2.805-1.377-4.104-3.727-4.473c-3.355-0.527-6.757-0.809-10.15-1.018C587.181,125.415,584.936,125.59,585.877,128.603z"/>
	<path fill-rule="evenodd" clip-rule="evenodd" d="M195.185,169.927c-0.365-1.629-0.755-2.715-0.833-3.822
		c-0.419-5.97-2.028-11.473-5.941-16.156c-1.164-1.392-1.872-1.634-3.538-0.204c-5.559,4.77-11.871,8.32-19.345,8.914
		c-6.967,0.554-13.964,0.872-20.952,0.968c-2.595,0.035-3.355,1.32-3.825,3.342c-1.252,5.397-2.692,10.76-3.697,16.203
		c-1.915,10.37-8.785,17.093-16.476,23.351c-6.644,5.405-14.075,9.36-22.163,11.975c-8.604,2.782-17.419,5.081-26.505,5.054
		c-5.447-0.016-10.891-1.278-16.335-1.985c-0.778-0.102-1.552-0.326-2.33-0.333c-5.613-0.056-10.574-2.16-15.357-4.826
		c-2.422-1.351-4.854-2.688-7.222-4.127c-2.433-1.478-3.548-3.747-3.322-6.646c-6.436-0.506-7.749-5.676-9.4-10.127
		c-4.1-11.05-3.65-22.264-0.07-33.358c1.907-5.909,3.8-11.879,6.415-17.488c2.456-5.268,5.512-10.359,10.438-13.895
		c3.458-2.482,6.721-1.359,9.569,1.927c1.402,1.617,1.535,3.499,0.188,5.257c-1.481,1.935-2.826,4.075-4.654,5.625
		c-6.557,5.559-9.735,12.649-10.915,21.048c-1.706,12.141,2.133,21.979,11.299,29.899c1.189,1.028,2.642,1.805,3.651,2.975
		c1.078,1.247,1.775,2.823,2.806,4.535c-0.271-0.062-0.01,0.063,0.047,0.001c3.008-3.258,6.013-1.634,9.422-0.505
		c3.558,1.177,7.472,1.651,11.245,1.729c6.037,0.121,12.125,0.023,18.118-0.648c6.698-0.751,13.364-2.043,19.101-6.105
		c0.855-0.605,2.214-0.449,3.2-0.932c2.029-0.992,3.997-2.123,5.926-3.302c1.636-0.999,3.146-2.205,4.774-3.217
		c7.655-4.755,11.053-13.727,8.696-22.583c-1.292-4.858-2.146-9.835-3.497-14.675c-0.738-2.646-2.463-5.037-3.061-7.696
		c-0.44-1.96-0.422-4.538,0.524-6.191c2.333-4.076,5.207-7.863,8.088-11.594c1.44-1.864,3.539-3.702,5.999-3.041
		c2.611,0.701,3.646,3.301,4.258,5.848c0.122,0.507,0.165,1.043,0.17,1.567c0.043,3.607,1.521,6.37,4.264,8.798
		c2.225,1.969,4.441,3.185,7.446,3.213c1.808,0.018,3.602,0.766,5.416,0.842c2.41,0.101,4.465,0.521,5.145,2.881
		c3.181-2.062,6.179-4.223,9.404-5.958c0.887-0.478,2.684-0.04,3.668,0.593c2.687,1.727,4.765,2.049,6.68,0.862
		c-0.169-2.113-0.375-3.95-0.422-5.792c-0.011-0.438,0.403-1.146,0.792-1.297c5.457-2.131,6.714-8.069,10.597-11.617
		c1.028-0.939,1.844-2.113,2.872-3.053c2.191-2.002,6.027-1.576,7.531,1.005c0.392,0.672,0.025,2.211-0.532,2.941
		c-3.383,4.429-2.96,10.443,1.293,13.996c2.617,2.187,5.332,4.136,9.095,4.066c3.751-0.068,7.513,0.259,11.264,0.496
		c3.127,0.198,5.031-1.76,6.797-3.824c1.99-2.324,4.1-4.639,5.578-7.282c1.287-2.302,1.772-5.054,2.604-7.61
		c0.374-1.151,0.716-2.313,1.092-3.464c2.63-8.042,6.234-15.523,11.222-22.462c5.178-7.204,13.612-7.762,19.729-3.274
		c1.451,1.064,3.171,1.752,4.698,2.723c5.633,3.582,8.389,9.281,11.194,15.021c4.511,9.228,4.215,18.929,3.064,28.69
		c-0.254,2.153-1.258,4.44-2.548,6.203c-2.421,3.306-5.108,6.481-8.093,9.274c-1.119,1.047-3.494,1.474-5.097,1.161
		c-8.524-1.663-16.519-4.622-23.181-10.52c-1.48-1.311-3.282-2.293-5.027-3.261c-1.782-0.987-2.47,0.65-3.293,1.687
		c-3.582,4.511-6.817,9.344-10.763,13.505c-4.505,4.751-10.458,5.203-16.656,3.957c-0.979-0.196-2.096,0.41-3.162,0.505
		c-2.697,0.241-5.437,0.205-8.087,0.683c-1.268,0.229-2.49,1.236-3.516,2.139c-1.234,1.085-2.304,2.38-3.315,3.685
		C196.704,167.133,196.188,168.235,195.185,169.927z M273.573,128.113c2.016-6.84-4.941-14.455-11.022-15.697
		c-1.411-0.289-3.3,0.181-4.529,0.979c-1.61,1.045-2.784,2.762-4.318,4.372C259.61,122.919,264.056,130.105,273.573,128.113z"/>
	<path fill-rule="evenodd" clip-rule="evenodd" d="M346.616,154.772c-3.904-0.717-7.809-1.435-11.867-2.181
		c-0.747,2.072,0.982,2.449,2.322,3.147c0.712,0.371,1.34,0.903,2.006,1.363c-0.592,0.593-1.078,1.431-1.793,1.739
		c-4.844,2.091-9.609,4.512-14.648,5.959c-4.846,1.392-10.22-1.666-10.767-6.815c-0.077-0.722-0.505-1.528-1.016-2.061
		c-3.007-3.136-3.725-7.042-3.682-11.118c0.049-4.506,0.021-9.058,0.655-13.5c0.875-6.126,3.849-11.502,7.489-16.427
		c3.572-4.832,7.329-9.528,11.106-14.203c4.617-5.712,11.724-5.596,16.861-0.776c6.362,5.969,8.498,13.303,9.654,21.31
		c1.334,9.229,1.378,18.412-0.721,27.595c-0.658,2.883-1.187,5.616-2.64,8.312c-1.214,2.252-1.21,5.159-1.762,7.773
		c-1.434,6.795-5.271,12.401-8.874,18.147c-6.861,10.938-15.783,19.834-26.764,26.515c-4.64,2.823-9.628,5.501-14.82,6.889
		c-7.46,1.995-15.171,1.287-22.649-0.965c-4.559-1.373-9.007-2.865-13.889-3.35c-3.581-0.355-6.966-2.906-10.385-4.589
		c-2.02-0.994-2.765-5.795-1.598-7.856c0.884-1.56,2.527-2.217,3.637-0.844c3.058,3.779,7.227,2.196,10.953,2.721
		c0.676,0.096,1.396-0.177,2.094-0.163c9.494,0.188,18.662-1.414,27.75-4.211c10.411-3.203,20.664-6.674,29.824-12.68
		c7.244-4.75,12.565-11.312,16.507-18.979c0.53-1.031,0.562-2.337,0.736-3.528c0.375-2.557,0.988-4.811,4.22-5.054
		c0.72-0.054,1.39-0.787,2.083-1.208C346.633,155.414,346.625,155.094,346.616,154.772z M333.597,132.222
		c0.215-4.398-3.208-5.783-5.806-7.652c-1.764-1.269-4.063-1.763-5.772,0.027c-1.652,1.732-1.103,3.876-0.058,5.847
		c1.401,2.64,3.771,3.893,6.458,4.948C331.81,136.726,333.615,135.661,333.597,132.222z"/>
	<path fill-rule="evenodd" clip-rule="evenodd" d="M82.333,61.703c4.654,0.336,7.654,3.207,10.751,5.664
		c2.925,2.319,5.789,4.794,8.29,7.554c3.681,4.064,2.521,10.411-1.945,13.635c-3.585,2.589-7.055,5.361-10.396,8.259
		c-3.582,3.108-9.667,3.126-12.779-0.221c-4.284-4.609-8.529-9.256-12.857-13.823c-1.514-1.597-2.158-2.784-0.158-4.682
		c4.812-4.566,9.291-9.483,14.113-14.037C78.62,62.854,80.651,62.464,82.333,61.703z"/>
	<path fill-rule="evenodd" clip-rule="evenodd" d="M165.081,189.043c0.462-1.124,0.794-2.205,1.329-3.176
		c1.258-2.282,2.587-4.527,3.933-6.76c1.854-3.076,5.981-4.006,8.715-1.722c1.674,1.398,2.746,3.528,4.443,4.884
		c1.91,1.525,4.183,2.625,6.395,3.713c0.358,0.177,1.395-0.529,1.818-1.064c2.276-2.876,4.377-5.894,6.691-8.737
		c3.105-3.815,5.772-3.936,9.123-0.407c2.806,2.954,5.606,5.941,8.08,9.166c0.686,0.895,0.733,2.985,0.156,4.014
		c-2.031,3.622-4.317,7.127-6.779,10.477c-2.632,3.581-4.776,3.818-8.41,1.105c-2.802-2.093-5.455-4.389-8.118-6.661
		c-1.56-1.331-2.938-1.369-4.303,0.213c-2.282,2.647-4.604,5.261-6.845,7.942c-1.375,1.646-2.852,2.022-4.438,0.471
		c-3.553-3.475-7.08-6.979-10.511-10.574C165.697,191.23,165.519,190.072,165.081,189.043z"/>
	<path fill-rule="evenodd" clip-rule="evenodd" d="M549.634,41.005c0.327-4.286,3.082-6.928,5.718-9.375
		c2.395-2.223,5.308-3.91,8.086-5.689c2.362-1.514,4.751-0.953,6.745,0.727c3.141,2.646,6.178,5.423,9.147,8.261
		c1.641,1.568,1.279,3.601,0.336,5.325c-3.017,5.504-7.358,9.901-12.146,13.871c-1.572,1.305-3.382,1.082-4.836-0.101
		c-3.857-3.136-7.653-6.355-11.33-9.7C550.49,43.539,550.192,42.128,549.634,41.005z"/>
	<path fill-rule="evenodd" clip-rule="evenodd" fill="#FFFFFF" d="M672.473,125.874c-0.155,2.249-1.206,3.592-3.328,3.341
		c-1.506-0.178-3.318-0.566-4.335-1.545c-2.758-2.654-6.209-3.761-9.569-5.164c-1.04-0.434-2.064-1-2.945-1.696
		c-1.505-1.19-2.05-3.03-0.745-4.368c1.969-2.018,4.206-4.047,6.733-5.127c1.22-0.522,3.536,0.838,5.041,1.827
		c2.1,1.379,3.904,3.208,5.834,4.847c0.198,0.169,0.471,0.325,0.555,0.545C670.668,121.022,671.593,123.521,672.473,125.874z"/>
	<path fill-rule="evenodd" clip-rule="evenodd" fill="#FFFFFF" d="M585.877,128.603c-0.941-3.012,1.304-3.188,3.528-3.051
		c3.394,0.209,6.795,0.491,10.15,1.018c2.35,0.369,3.886,1.668,3.727,4.473c-0.098,1.714,0.387,3.455,0.553,5.189
		c0.177,1.857-0.837,2.678-2.542,2.325c-3.828-0.793-7.661-1.606-11.416-2.678C587.509,135.203,585.786,131.858,585.877,128.603z"/>
	<path fill-rule="evenodd" clip-rule="evenodd" fill="#FFFFFF" d="M273.573,128.113c-9.517,1.992-13.962-5.194-19.87-10.347
		c1.534-1.609,2.708-3.327,4.318-4.372c1.229-0.797,3.119-1.267,4.529-0.979C268.631,113.659,275.589,121.273,273.573,128.113z"/>
	<path fill-rule="evenodd" clip-rule="evenodd" fill="#FFFFFF" d="M333.597,132.222c0.018,3.439-1.787,4.504-5.178,3.171
		c-2.687-1.056-5.057-2.309-6.458-4.948c-1.045-1.971-1.595-4.115,0.058-5.847c1.709-1.791,4.009-1.296,5.772-0.027
		C330.389,126.438,333.812,127.823,333.597,132.222z"/>
</g>
</svg>
