<?xml version="1.0" encoding="utf-8"?>
<!-- Generator: Adobe Illustrator 24.2.3, SVG Export Plug-In . SVG Version: 6.00 Build 0)  -->
<svg version="1.1" id="Layer_1" xmlns="http://www.w3.org/2000/svg" xmlns:xlink="http://www.w3.org/1999/xlink" x="0px" y="0px"
	 viewBox="0 0 700 250" style="enable-background:new 0 0 700 250;" xml:space="preserve">
<style type="text/css">
	.st0{fill-rule:evenodd;clip-rule:evenodd;fill:#FFFFFF;}
</style>
<g>
	<path class="st0" d="M687.4,126.2c-0.1-4.1-0.5-8.4-1.8-12.2c-1.6-4.8-4.3-9.2-6.5-13.7c-0.5-1-1.2-2-2.1-2.6
		c-3.2-2.4-6.5-4.8-9.9-6.9c-5.9-3.7-11.6-3-16.3,2.1c-4.9,5.4-8,11.8-10.8,18.5c-3.1,7.7-3.2,16.6-10,22.9
		c-2.3,2.1-4.2,4.4-7.3,4.9c-4,0.7-8.1,1-12.1,1.6c-2.4,0.3-3.6-0.8-3.6-3c0.1-4.9-0.2-10,0.9-14.6c1.1-4.6,3.7-8.9,6-13.2
		c0.9-1.8,1-3-0.5-4c-1-0.7-2.4-1.4-3.5-1.3c-3.5,0.1-6.9,0.8-10.4,1c-8.1,0.4-16.3,0.7-24.4,1c-0.9,0-1.8-0.3-2.6-0.5
		c0-0.1,0-0.2,0.1-0.4c1-0.1,2-0.1,3-0.2c-3.2-0.9-6.4-1.5-9.6-2.1c-2.6-0.5-5.2-0.8-7.6-1.8c-3.4-1.4-6.5-3.4-9.8-4.9
		c-4.8-2.1-9.7-4.1-14.7-5.9c-5.9-2.2-12.1-1.8-18.2-1.5c-2.1,0.1-4.5,0.7-5.4,3.4c-0.2,0.5-1,1-1.6,1.3c-4.9,2-8.3,5.8-11,10.1
		c-1.3,2-2,4.5-2.2,6.8c-0.2,3.8,4.1,5.2,8.4,3.3c2.9-1.3,5.9-2.6,9-3.1c3.2-0.5,6.4-1.7,10-0.5c5.6,1.9,11.5,3.2,17.3,4.6
		c0.8,0.2,1.8,0.3,2.6,0.1c2.8-0.8,4.6,0.7,6.5,2.4c-2,1.3-3.8,2.4-5.6,3.4c-3.6,2-7.3,3.8-11,5.7c-3.5,1.7-6.9,3.5-10.5,4.9
		c-4.5,1.8-9.1,3.2-13.7,4.6c-2.6,0.8-5.2,1.5-7.8,1.8c-4.1,0.5-8.2,0.9-12.3,0.9c-2.4,0-5.5-0.1-7.2-1.5
		c-7-5.7-12.6-12.4-15.3-21.3c-1-3.3-2-6.6-3.5-9.7c-5-10.3-6.7-21.7-10-32.5c-1.2-4-1.5-8.4-2.2-12.6c-0.5-2.6-1.1-5.2-1.6-7.8
		c-0.6-3.1-0.9-6.2-1.6-9.3c-0.6-2.8-2.8-3.5-4.8-1.6c-1.5,1.3-2.7,3-3.7,4.7c-1.7,2.7-3,5.7-4.9,8.3c-1.2,1.6-1.4,3.1-1,4.9
		c0.9,3.9,1.7,7.9,2.8,11.8c1.6,5.6,3.4,11,5.1,16.6c0.3,0.9,0.6,1.8,0.8,2.7c1.1,4.6,1.9,9.3,3.2,13.9c1,3.3,1,6.7,0.1,9.8
		c-2.8,9.6-10.5,15.1-19,18.3c-9.8,3.7-20.5,4.7-31.2,4.5c-5.6-0.1-7.8-2.1-9-7.7c-0.4-2-1.6-4.1-2.9-5.7c-1.8-2.3-3.4-2.3-5.4-0.1
		c-1.4,1.5-2.6,3.3-3.4,5.2c-2.8,6.8-3.5,14.1-2.9,21.3c0.3,3.8,2.3,6.7,5.2,7.5c1.5,0.4,2.9,1.1,4.4,1.5c2.2,0.6,4.5,1.7,6.7,1.7
		c6.6-0.1,13.3-0.4,19.9-1.2c4.9-0.6,10.1-1.3,14.3-3.5c5.5-2.8,10.2-7.2,15.2-11c5.9-4.5,8.7-11.1,12-17.4c0.5-1,1.1-1.9,1.7-2.8
		c0.9,0.8,2.1,1.5,2.7,2.5c2.9,5.3,5.5,10.9,8.7,16c2,3.3,5,6.1,7.5,9c3.4,4,7.9,5.8,13,5.7c7.5-0.2,15,1.4,22.3-2.4
		c4.9-2.6,10.8-3.3,15.9-5.6c7.2-3.2,14.2-6.9,21.1-10.7c5.8-3.1,11.3-6.7,16.8-9.9h-1.1c5.6-2.8,10.9-6.5,17.6-6.1
		c3.2,0.2,3.7,0.9,2.9,3.9c-0.3,1.3-0.1,2.8,0,4.2c0.1,1.2,0.4,2.4,0.6,3.6c0.8,3.4,1,7.1,2.6,10c2.4,4.3,4.5,9.4,10.5,10.2
		c0.5,0.1,0.9,0.5,1.4,0.6c5.7,1.8,11.4,3.6,17.5,1.8c1.5-0.5,3.3-0.2,4.9-0.2c2.3,0,4.6,0.3,6.7-0.2c3-0.8,5.8-2.2,9-3.6
		c0.6,7,1.3,14.1,1.9,21.2c0.2,0,0.5,0,0.8,0c0.1-0.6,0.4-1.1,0.4-1.7c0.4-7,0.9-14,1-21c0.1-5.6,2-10.1,6.5-13.4
		c0.7-0.5,2.2-0.8,2.9-0.4c5.2,3.3,9.5,8.2,15.6,10.3c0.2,0.1,0.4,0.4,0.6,0.5c0.9,0.4,1.9,0.9,2.9,1.1c1.6,0.4,3.2,0.6,4.8,1.1
		c4.4,1.4,8.1,0.7,10.4-2.1c1.7-2,3.5-3.9,5.2-6c1-1.2,1.7-2.6,2.5-3.9C688.4,135.8,687.5,130.9,687.4,126.2z M670.6,129.1
		c-0.1,0-0.2,0-0.3,0.1c-0.3,0.1-0.7,0.1-1.1,0c-0.2,0-0.4,0-0.6-0.1c-1.4-0.2-2.9-0.6-3.8-1.5c-2.8-2.6-6.2-3.8-9.6-5.2
		c-1-0.4-2.1-1-2.9-1.7c-1.5-1.2-2-3-0.8-4.4c0.2-0.2,0.5-0.5,0.8-0.8l0.8-0.8c1.6-1.5,3.3-2.8,5.2-3.6c1.2-0.5,3.5,0.8,5,1.8
		c2.1,1.4,3.9,3.2,5.8,4.8c0.2,0.2,0.5,0.3,0.6,0.5c1,2.5,1.9,5,2.8,7.3C672.4,127.5,671.8,128.7,670.6,129.1z"/>
	<path class="st0" d="M287.1,108.5c-2.8-5.7-5.6-11.4-11.2-15c-1.5-1-3.2-1.7-4.7-2.7c-6.1-4.5-14.5-3.9-19.7,3.3
		c-5,6.9-8.6,14.4-11.2,22.5c-0.4,1.2-0.7,2.3-1.1,3.5c-0.8,2.6-1.3,5.3-2.6,7.6c-1.5,2.6-3.6,5-5.6,7.3c-1.8,2.1-3.7,4-6.8,3.8
		c-3.8-0.2-7.5-0.6-11.3-0.5c-3.8,0.1-6.5-1.9-9.1-4.1c-4.3-3.5-4.7-9.6-1.3-14c0.6-0.7,0.9-2.3,0.5-2.9c-1.5-2.6-5.3-3-7.5-1
		c-1,0.9-1.8,2.1-2.9,3.1c-3.9,3.5-5.1,9.5-10.6,11.6c-0.4,0.1-0.8,0.9-0.8,1.3c0,1.8,0.3,3.7,0.4,5.8c-1.9,1.2-4,0.9-6.7-0.9
		c-1-0.6-2.8-1.1-3.7-0.6c-3.2,1.7-6.2,3.9-9.4,6c-0.7-2.4-2.7-2.8-5.1-2.9c-1.8-0.1-3.6-0.8-5.4-0.8c-3,0-5.2-1.2-7.4-3.2
		c-2.8-2.4-4.2-5.2-4.3-8.8c0-0.5,0-1.1-0.2-1.6c-0.6-2.5-1.7-5.1-4.3-5.8c-2.5-0.7-4.6,1.2-6,3c-2.9,3.7-5.8,7.5-8.1,11.6
		c-1,1.7-1,4.2-0.5,6.2c0.6,2.7,2.3,5.1,3.1,7.7c1.3,4.8,2.2,9.8,3.5,14.7c2.4,8.9-1,17.8-8.7,22.6c-1.6,1-3.1,2.2-4.8,3.2
		c-1.9,1.2-3.9,2.3-5.9,3.3c-1,0.5-2.3,0.3-3.2,0.9c-5.7,4.1-12.4,5.3-19.1,6.1c-6,0.7-12.1,0.8-18.1,0.7c-3.8-0.1-7.7-0.5-11.2-1.7
		c-3.4-1.1-6.4-2.8-9.4,0.5c-0.1,0.1-0.3-0.1,0,0c-1-1.7-1.7-3.3-2.8-4.5c-1-1.2-2.5-2-3.7-3c-9.2-7.9-13-17.8-11.3-29.9
		c1.2-8.4,4.4-15.5,10.9-21c1.8-1.5,3.2-3.7,4.6-5.6c1.4-1.8,1.2-3.6-0.2-5.3c-2.8-3.3-6.1-4.4-9.6-1.9c-4.9,3.5-8,8.6-10.4,13.9
		c-2.6,5.6-4.5,11.6-6.4,17.5c-3.6,11.1-4,22.3,0.1,33.4c1.7,4.5,3,9.6,9.4,10.1c-0.2,2.9,0.9,5.2,3.3,6.6c2.4,1.4,4.8,2.8,7.2,4.1
		c4.8,2.7,9.7,4.8,15.4,4.8c0.8,0,1.5,0.2,2.3,0.3c5.4,0.7,10.9,2,16.3,2c9.1,0,17.9-2.3,26.5-5c8.1-2.6,15.5-6.6,22.2-12
		c7.7-6.3,14.6-13,16.5-23.4c1-5.4,2.5-10.8,3.7-16.2c0.5-2,1.2-3.3,3.8-3.3c7-0.1,14-0.4,21-1c7.5-0.6,13.8-4.1,19.3-8.9
		c1.7-1.4,2.4-1.2,3.5,0.2c3.9,4.7,5.5,10.2,5.9,16.1c0.1,1.1,0.5,2.2,0.8,3.8c1-1.7,1.5-2.8,2.2-3.7c1-1.3,2.1-2.6,3.3-3.7
		c1-0.9,2.2-1.9,3.5-2.1c2.6-0.5,5.4-0.4,8.1-0.7c1.1-0.1,2.2-0.7,3.2-0.5c6.2,1.2,12.2,0.8,16.7-4c4-4.2,7.2-9,10.8-13.5
		c0.8-1,1.5-2.7,3.3-1.7c1.7,1,3.5,2,5,3.3c6.7,5.9,14.7,8.9,23.2,10.5c1.6,0.3,4-0.1,5.1-1.2c3-2.8,5.7-6,8.1-9.3
		c1.3-1.8,2.3-4,2.5-6.2C291.3,127.4,291.6,117.7,287.1,108.5z M273.6,128.1c-9.5,2-14-5.2-19.9-10.3c1.5-1.6,2.7-3.3,4.3-4.4
		c1.2-0.8,3.1-1.3,4.5-1C268.6,113.7,275.6,121.3,273.6,128.1z"/>
	<path class="st0" d="M352.9,121.2c-1.2-8-3.3-15.3-9.7-21.3c-5.1-4.8-12.2-4.9-16.9,0.8c-3.8,4.7-7.5,9.4-11.1,14.2
		c-3.7,4.9-6.6,10.3-7.5,16.4c-0.6,4.4-0.6,9-0.7,13.5c0,4.1,0.7,8,3.7,11.1c0.5,0.5,0.9,1.3,1,2.1c0.5,5.2,5.9,8.2,10.8,6.8
		c5-1.5,9.8-3.9,14.6-6c0.7-0.3,1.2-1.2,1.8-1.7c-0.7-0.5-1.3-1-2-1.4c-1.3-0.7-3.1-1.1-2.3-3.1c4.1,0.8,8,1.5,11.9,2.2
		c0,0.3,0,0.6,0,1c-0.7,0.4-1.4,1.2-2.1,1.2c-3.2,0.2-3.8,2.5-4.2,5.1c-0.2,1.2-0.2,2.5-0.7,3.5c-3.9,7.7-9.3,14.2-16.5,19
		c-9.2,6-19.4,9.5-29.8,12.7c-9.1,2.8-18.3,4.4-27.8,4.2c-0.7,0-1.4,0.3-2.1,0.2c-3.7-0.5-7.9,1.1-11-2.7c-1.1-1.4-2.8-0.7-3.6,0.8
		c-1.2,2.1-0.4,6.9,1.6,7.9c3.4,1.7,6.8,4.2,10.4,4.6c4.9,0.5,9.3,2,13.9,3.4c7.5,2.2,15.2,3,22.6,1c5.2-1.4,10.2-4.1,14.8-6.9
		c11-6.7,19.9-15.6,26.8-26.5c3.6-5.8,7.4-11.4,8.9-18.1c0.5-2.6,0.5-5.5,1.8-7.8c1.5-2.7,2-5.4,2.6-8.3
		C354.3,139.6,354.3,130.4,352.9,121.2z M328.4,135.4c-2.7-1-5.1-2.3-6.5-5c-1-2-1.6-4.1,0.1-5.8c1.7-1.8,4-1.3,5.8,0
		c2.6,1.9,6,3.2,5.8,7.6C333.6,135.7,331.8,136.7,328.4,135.4z"/>
	<path class="st0" d="M82.3,61.7C87,62,90,64.9,93.1,67.4c2.9,2.3,5.8,4.8,8.3,7.6c3.7,4.1,2.5,10.4-1.9,13.6
		c-3.6,2.6-7.1,5.4-10.4,8.3c-3.6,3.1-9.7,3.1-12.8-0.2C72,92,67.7,87.3,63.4,82.8c-1.5-1.6-2.2-2.8-0.2-4.7
		c4.8-4.6,9.3-9.5,14.1-14C78.6,62.9,80.7,62.5,82.3,61.7z"/>
	<path class="st0" d="M165.1,189c0.5-1.1,0.8-2.2,1.3-3.2c1.3-2.3,2.6-4.5,3.9-6.8c1.9-3.1,6-4,8.7-1.7c1.7,1.4,2.7,3.5,4.4,4.9
		c1.9,1.5,4.2,2.6,6.4,3.7c0.4,0.2,1.4-0.5,1.8-1.1c2.3-2.9,4.4-5.9,6.7-8.7c3.1-3.8,5.8-3.9,9.1-0.4c2.8,3,5.6,5.9,8.1,9.2
		c0.7,0.9,0.7,3,0.2,4c-2,3.6-4.3,7.1-6.8,10.5c-2.6,3.6-4.8,3.8-8.4,1.1c-2.8-2.1-5.5-4.4-8.1-6.7c-1.6-1.3-2.9-1.4-4.3,0.2
		c-2.3,2.6-4.6,5.3-6.8,7.9c-1.4,1.6-2.9,2-4.4,0.5c-3.6-3.5-7.1-7-10.5-10.6C165.7,191.2,165.5,190.1,165.1,189z"/>
	<path class="st0" d="M549.6,41c0.3-4.3,3.1-6.9,5.7-9.4c2.4-2.2,5.3-3.9,8.1-5.7c2.4-1.5,4.8-1,6.7,0.7c3.1,2.6,6.2,5.4,9.1,8.3
		c1.6,1.6,1.3,3.6,0.3,5.3c-3,5.5-7.4,9.9-12.1,13.9c-1.6,1.3-3.4,1.1-4.8-0.1c-3.9-3.1-7.7-6.4-11.3-9.7
		C550.5,43.5,550.2,42.1,549.6,41z"/>
</g>
</svg>
